<?xml version="1.0" standalone="no"?>
<!DOCTYPE svg PUBLIC "-//W3C//DTD SVG 20010904//EN"
 "http://www.w3.org/TR/2001/REC-SVG-20010904/DTD/svg10.dtd">
<svg version="1.0" xmlns="http://www.w3.org/2000/svg"
 width="512.000000pt" height="512.000000pt" viewBox="0 0 512.000000 512.000000"
 preserveAspectRatio="xMidYMid meet">
<metadata>
Created by potrace 1.14, written by Peter Selinger 2001-2017
</metadata>
<g transform="translate(0.000000,512.000000) scale(0.100000,-0.100000)"
fill="#000000" stroke="none">
<path d="M2635 3538 c-2 -7 -34 -110 -70 -228 -103 -332 -153 -490 -211 -675
-175 -556 -324 -1039 -324 -1051 0 -12 39 -14 226 -12 l227 3 27 90 c27 88
112 362 223 715 30 96 62 198 70 225 22 71 101 326 201 643 47 151 86 280 86
288 0 19 -448 21 -455 2z"/>
<path d="M1875 3341 c-27 -17 -320 -178 -863 -474 l-202 -110 2 -195 3 -194
135 -75 c74 -41 182 -99 240 -130 58 -30 119 -63 135 -73 17 -9 62 -34 100
-55 39 -21 93 -50 120 -65 28 -15 106 -58 175 -95 69 -37 144 -79 168 -92 l42
-24 0 230 0 230 -177 97 c-342 187 -437 241 -440 250 -1 5 137 85 307 179
l310 169 0 223 c0 242 1 239 -55 204z"/>
<path d="M3192 3135 l3 -227 90 -50 c50 -27 117 -64 150 -82 55 -30 196 -108
333 -184 l53 -29 -43 -25 c-24 -13 -166 -92 -315 -174 l-273 -149 0 -222 c0
-137 4 -223 10 -223 8 0 64 30 370 198 119 65 353 193 548 299 l192 105 -2
195 -3 195 -155 85 c-317 173 -926 502 -943 509 -16 6 -17 -7 -15 -221z"/>
</g>
</svg>
